{
  "accessors": [
    {
      "bufferView": 0,
      "componentType": 5125,
      "count": 148218,
      "type": "SCALAR"
    },
    {
      "bufferView": 1,
      "componentType": 5126,
      "count": 32985,
      "max": [
        0.14754316026654113,
        0.13304335600657446,
        0.006496923685237666
      ],
      "min": [
        -0.1475431602665409,
        -0.13304335600657446,
        -0.006496923685237666
      ],
      "type": "VEC3"
    },
    {
      "bufferView": 2,
      "componentType": 5126,
      "count": 32985,
      "max": [
        0.9999998119495278,
        0.9999999145028533,
        1.0
      ],
      "min": [
        -0.9999999240047359,
        -0.9999999356129817,
        -1.0
      ],
      "type": "VEC3"
    },
    {
      "bufferView": 3,
      "componentType": 5126,
      "count": 32985,
      "max": [
        1.0,
        0.9999311711445977
      ],
      "min": [
        0.0,
        0.0
      ],
      "type": "VEC2"
    }
  ],
  "asset": {
    "generator": "Adobe Illustrator",
    "version": "2.0"
  },
  "bufferViews": [
    {
      "buffer": 0,
      "byteLength": 592872,
      "target": 34963
    },
    {
      "buffer": 0,
      "byteLength": 395820,
      "byteOffset": 592872,
      "target": 34962
    },
    {
      "buffer": 0,
      "byteLength": 395820,
      "byteOffset": 988692,
      "target": 34962
    },
    {
      "buffer": 0,
      "byteLength": 263880,
      "byteOffset": 1384512,
      "target": 34962
    }
  ],
  "buffers": [
    {
      "byteLength": 1648392,
      "uri": "data:application/octet-stream;base64,"
    }
  ],
  "materials": [
    {
      "doubleSided": true,
      "pbrMetallicRoughness": {
        "baseColorFactor": [
          0.25390625,
          0.6953125,
          0.66015625,
          1.0
        ],
        "metallicFactor": 0.97095787525177,
        "roughnessFactor": 0.478804349899292
      }
    }
  ],
  "meshes": [
    {
      "primitives": [
        {
          "attributes": {
            "NORMAL": 2,
            "POSITION": 1,
            "TEXCOORD_0": 3
          },
          "indices": 0,
          "material": 0,
          "mode": 4
        }
      ]
    }
  ],
  "nodes": [
    {
      "mesh": 0
    }
  ],
  "scenes": [
    {
      "nodes": [
        0
      ]
    }
  ]
}
